<?xml version="1.0" encoding="UTF-8" standalone="no"?>
<!DOCTYPE svg PUBLIC "-//W3C//DTD SVG 1.1//EN" "http://www.w3.org/Graphics/SVG/1.1/DTD/svg11.dtd">
<!-- 由 Microsoft Visio, SVG Export 生成 logo.svg Page-1 -->
<svg xmlns="http://www.w3.org/2000/svg" xmlns:xlink="http://www.w3.org/1999/xlink" xmlns:ev="http://www.w3.org/2001/xml-events"
		xmlns:v="http://schemas.microsoft.com/visio/2003/SVGExtensions/" width="16.0354in" height="22.8858in"
		viewBox="0 0 1154.55 1647.78" xml:space="preserve" color-interpolation-filters="sRGB" class="st6">
	<v:documentProperties v:langID="2052" v:metric="true" v:viewMarkup="false">
		<v:userDefs>
			<v:ud v:nameU="msvNoAutoConnect" v:val="VT0(1):26"/>
		</v:userDefs>
	</v:documentProperties>

	<style type="text/css">
	<![CDATA[
		.st1 {fill:#595959;stroke:#7e649e;stroke-linecap:butt;stroke-width:0.75}
		.st2 {fill:#595959;stroke:#595959;stroke-width:31.515}
		.st3 {fill:#31859b;stroke:#7e649e;stroke-linecap:butt;stroke-width:0.75}
		.st4 {fill:none;stroke:none;stroke-linecap:round;stroke-linejoin:round;stroke-width:0.75}
		.st5 {fill:#ff0000;font-family:Bradley Hand ITC;font-size:3em;font-weight:bold}
		.st6 {fill:none;fill-rule:evenodd;font-size:12px;overflow:visible;stroke-linecap:square;stroke-miterlimit:3}
	]]>
	</style>

	<g v:mID="0" v:index="1" v:groupContext="foregroundPage">
		<title>页-1</title>
		<v:pageProperties v:drawingScale="0.0393701" v:pageScale="0.0393701" v:drawingUnits="24" v:shadowOffsetX="9"
				v:shadowOffsetY="-9"/>
		<g id="group2-1" transform="translate(509.657,-769.33)" v:mID="2" v:groupContext="group">
			<title>document</title>
			<g id="shape3-2" v:mID="3" v:groupContext="shape" transform="translate(0,-69.5524)">
				<title>工作表.3</title>
				<path d="M139.03 1581.81 C141.64 1544.22 113.21 1511.6 75.56 1508.99 C37.9 1506.39 5.23 1534.77 2.61 1572.36 C0 1609.94
							 28.44 1642.56 66.09 1645.17 C103.74 1647.78 136.42 1619.39 139.03 1581.81 ZM73.66 1536.23 C96.31 1537.8
							 113.32 1557.31 111.75 1579.92 C110.18 1602.52 90.63 1619.5 67.98 1617.94 C45.34 1616.37 28.33 1596.85
							 29.9 1574.25 C31.47 1551.64 51.02 1534.66 73.66 1536.23 Z" class="st1"/>
			</g>
			<g id="shape4-4" v:mID="4" v:groupContext="shape" transform="translate(158.525,-69.2599)">
				<title>工作表.4</title>
				<path d="M23.38 1639.94 C40.89 1634.53 60.03 1633.52 79.2 1637.92 C88.65 1640.09 97.52 1643.44 105.68 1647.78 C123.73
							 1636.6 136.33 1617.22 137.91 1594.47 C140.53 1556.89 112.09 1524.27 74.44 1521.66 C36.79 1519.05 4.11
							 1547.44 1.49 1585.02 C0 1606.51 8.66 1626.38 23.38 1639.94 ZM72.54 1548.89 C95.19 1550.46 112.2 1569.98
							 110.63 1592.58 C109.06 1615.19 89.51 1632.17 66.86 1630.6 C44.22 1629.03 27.21 1609.52 28.78 1586.91
							 C30.35 1564.31 49.9 1547.33 72.54 1548.89 Z" class="st1"/>
			</g>
			<g id="shape5-6" v:mID="5" v:groupContext="shape" transform="translate(115.887,-114.414)">
				<title>工作表.5</title>
				<path d="M0 1643.31 L12.91 1644.2 C13.66 1633.5 22.91 1625.47 33.62 1626.21 C44.34 1626.95 52.39 1636.19 51.65 1646.89
							 L64.56 1647.78 C65.79 1629.99 52.34 1614.56 34.52 1613.32 C16.7 1612.09 1.24 1625.52 0 1643.31 Z"
						class="st2"/>
			</g>
			<g id="shape6-8" v:mID="6" v:groupContext="shape" transform="translate(7.57154,-201.886)">
				<title>工作表.6</title>
				<path d="M132.41 1638.67 C133.38 1638.47 134.08 1638.24 134.95 1637.62 C137.26 1635.86 137.77 1632.48 136.02 1630.03
							 C135.77 1629.74 134.9 1628.45 132.83 1626.66 C133.81 1626.46 134.78 1626.25 135.78 1625.64 C138.1 1623.88
							 138.61 1620.49 136.86 1618.05 C136.1 1617.17 117.83 1594.01 71.72 1590.82 C71.72 1590.82 71.72 1590.82
							 71.45 1590.8 C71.45 1590.8 71.45 1590.8 71.17 1590.78 C25.07 1587.59 4.04 1608.03 3.02 1608.91 C0.82
							 1610.95 0.85 1614.51 2.9 1616.57 C3.54 1617.29 4.45 1617.91 5.68 1617.99 C3.25 1619.46 2.21 1620.62
							 2.06 1620.75 C0 1622.8 0.03 1626.36 2.08 1628.41 C2.71 1629.14 3.51 1629.47 4.45 1629.81 C3.15 1630.68
							 2.42 1631.31 2.42 1631.31 C0.67 1632.83 0.47 1635.69 1.99 1637.58 C2.88 1638.59 3.81 1638.93 5.04 1639.02
							 C6.27 1639.1 7.26 1638.62 8.26 1638.01 C8.56 1637.76 27.64 1621.56 68.98 1624.29 C109.89 1627.4 127.23
							 1646.12 127.22 1646.25 C128.11 1647.27 129.05 1647.61 130.27 1647.69 C131.5 1647.78 132.49 1647.3 133.5
							 1646.69 C135.25 1645.17 135.45 1642.31 133.93 1640.42 C134.21 1640.3 133.57 1639.71 132.41 1638.67 Z"
						class="st3"/>
			</g>
		</g>
		<g id="shape8-10" v:mID="8" v:groupContext="shape" transform="translate(573.42,-793.701)">
			<title>工作表.8</title>
			<desc>EasyNLP</desc>
			<v:textBlock v:margins="rect(4,4,4,4)" v:tabSpace="42.5197"/>
			<v:textRect cx="85.7624" cy="1620.45" width="171.53" height="54.653"/>
			<rect x="0" y="1593.13" width="171.525" height="54.653" class="st4"/>
			<text x="12.12" y="1631.25" class="st5" v:langID="2052"><v:paragraph v:horizAlign="1"/><v:tabList/>EasyNLP</text>		</g>
	</g>
</svg>
